Coordinates
version=1
nRows=26
nColumns=24
inDegrees=yes

Units are S.I. units (second, meters, Newtons, ...)
Angles are in degrees.

endheader
time	pelvis_tilt	pelvis_list	pelvis_rotation	pelvis_tx	pelvis_ty	pelvis_tz	hip_flexion_r	hip_adduction_r	hip_rotation_r	knee_angle_r	ankle_angle_r	subtalar_angle_r	mtp_angle_r	hip_flexion_l	hip_adduction_l	hip_rotation_l	knee_angle_l	ankle_angle_l	subtalar_angle_l	mtp_angle_l	lumbar_extension	lumbar_bending	lumbar_rotation
      1.40033333	     -4.63383176	     -9.14602608	    -12.45930646	      0.80192723	      0.96202896	      0.32188031	    -15.48226664	      8.94167177	      3.43707264	     -8.06422793	     12.76992694	     -2.24683068	      3.53124955	     34.88883618	    -15.79469474	    -10.22621834	      1.52406453	      5.84688800	     -7.85109128	    -10.47591465	     -7.72426655	      9.11946049	      9.33908931
      1.40450000	     -4.60759423	     -9.12697586	    -12.81296533	      0.80768917	      0.96113922	      0.32239767	    -15.76277404	      8.72957139	      3.75586697	     -8.30164105	     12.81779192	     -2.09943735	      3.67072363	     34.83900518	    -16.02573276	    -10.17587575	      0.95419998	      6.07180337	     -8.07388495	    -10.53606732	     -7.80059736	      8.96468448	      9.82779710
      1.40866667	     -4.60284840	     -9.06666671	    -13.06064828	      0.81372436	      0.96018395	      0.32270707	    -16.03924689	      8.49334867	      3.91296465	     -8.47623983	     12.71495992	     -2.00067180	      3.71265805	     34.82734163	    -16.14804344	    -10.05885395	      0.35125169	      6.38435761	     -8.28205392	    -10.55022617	     -7.77274640	      8.78480526	      9.90706050
      1.41283333	     -4.53059448	     -9.00480869	    -13.44200790	      0.81964212	      0.95947275	      0.32324871	    -16.34814090	      8.20552963	      4.21552353	     -8.72770358	     12.66061726	     -1.86594152	      3.94756104	     34.67421101	    -16.34446466	    -10.12609262	     -0.23792561	      6.59226193	     -8.40207426	    -10.63407422	     -7.88225156	      8.55622017	     10.49735179
      1.41700000	     -4.43602688	     -8.92557521	    -13.76839301	      0.82575932	      0.95880769	      0.32370615	    -16.71194987	      7.89854573	      4.48271873	     -8.90415056	     12.54602023	     -1.74140330	      4.34279983	     34.48466078	    -16.48366316	    -10.18859261	     -0.82789162	      6.83088652	     -8.46517760	    -10.75561692	     -7.95759127	      8.31286970	     10.83396822
      1.42116667	     -4.43888715	     -8.89041055	    -13.99431221	      0.83191493	      0.95791225	      0.32385253	    -16.96284951	      7.67452926	      4.60628151	     -9.11184383	     12.39652811	     -1.60295664	      4.38756812	     34.45080224	    -16.59745909	    -10.05159203	     -1.46557092	      7.02096966	     -8.66019186	    -10.76523332	     -7.92659582	      8.18702380	     10.85820663
      1.42533333	     -4.38844562	     -8.82852787	    -14.28611964	      0.83806880	      0.95719209	      0.32406299	    -17.23218362	      7.38200146	      4.75068636	     -9.37651883	     12.27727663	     -1.35532414	      4.65015376	     34.29814312	    -16.70947311	    -10.02140372	     -2.04971422	      7.13040764	     -8.83040688	    -10.81957352	     -7.97496689	      7.99663264	     11.26826239
      1.42950000	     -4.39730892	     -8.77787604	    -14.49337274	      0.84438029	      0.95636205	      0.32412286	    -17.47238624	      7.13765424	      4.85677489	     -9.57570954	     12.05390430	     -1.21481312	      4.69703160	     34.23653251	    -16.78403761	     -9.92616468	     -2.66473990	      7.23746700	     -8.97576538	    -10.82591501	     -7.91446667	      7.86792190	     11.29790142
      1.43366667	     -4.29889342	     -8.66697689	    -14.79530698	      0.85071109	      0.95583625	      0.32432190	    -17.77095878	      6.76475700	      4.97082157	     -9.84599640	     11.89727479	     -0.88330494	      4.99290202	     33.96087798	    -16.83354014	    -10.03217469	     -3.16461548	      7.21166999	     -9.09730280	    -10.85674088	     -7.97440543	      7.60338691	     11.74832663
      1.43783333	     -4.16610206	     -8.53484113	    -15.07402001	      0.85713036	      0.95541684	      0.32449779	    -18.10214223	      6.36677085	      5.07162426	    -10.09896049	     11.61142749	     -0.71281651	      5.55504135	     33.63251944	    -16.83842843	    -10.18551527	     -3.64605880	      7.16722175	     -9.18026648	    -10.88687838	     -8.06015122	      7.30641714	     11.99735303
      1.44200000	     -4.15350309	     -8.42306780	    -15.28251586	      0.86360810	      0.95477676	      0.32443355	    -18.29598519	      6.03233451	      5.08065431	    -10.38038345	     11.34858854	     -0.44631661	      6.06108248	     33.46837447	    -16.82038935	    -10.21436869	     -4.12919110	      7.00203858	     -9.38266929	    -10.88520645	     -7.99469203	      7.10207190	     12.19302534
      1.44616667	     -4.17391986	     -8.38454427	    -15.43142378	      0.87006583	      0.95407725	      0.32426495	    -18.46877424	      5.80508507	      5.09192988	    -10.66111325	     10.97593683	     -0.31531172	      6.13172739	     33.38869908	    -16.84690170	    -10.20200499	     -4.66514106	      6.84019101	     -9.45808085	    -10.88280014	     -7.91154420	      7.00879732	     12.19757328
      1.45033333	     -4.00997280	     -8.18956461	    -15.69983215	      0.87664745	      0.95387925	      0.32435675	    -18.76606507	      5.32149227	      5.10993436	    -10.97150517	     10.59725454	     -0.11012004	     12.72215262	     32.97718606	    -16.76103473	    -10.56278260	     -5.03891496	      6.53450133	     -9.47156607	    -10.09887228	     -8.00058939	      6.63280982	     12.55072348
      1.45450000	     -4.02330183	     -8.03933475	    -15.81839424	      0.88327288	      0.95331343	      0.32404248	    -18.87452234	      4.97585596	      4.99931015	    -11.32139818	     10.21605792	      0.09404034	     12.76990563	     32.83371048	    -16.63012920	    -10.57809921	     -5.41191994	      6.03948295	     -9.82354977	    -10.08038642	     -7.87528494	      6.41604194	     12.57827531
      1.45866667	     -3.98534516	     -7.86307777	    -15.93590084	      0.88992615	      0.95290223	      0.32371819	    -19.00446987	      4.58486715	      4.85499799	    -11.70576117	      9.80705919	      0.36499066	     12.85571263	     32.62418506	    -16.46639061	    -10.71198970	     -5.75627001	      5.49105524	    -10.07497012	    -10.04022288	     -7.79874044	      6.14636831	     12.65833301
      1.46283333	     -3.85042465	     -7.67274010	    -16.03448570	      0.89656372	      0.95272958	      0.32332789	    -19.20426576	      4.15273404	      4.68067647	    -12.12128559	      9.37792590	      0.67229170	     13.05426653	     32.29191370	    -16.25169511	    -10.88386833	     -6.03940981	      4.79916361	    -10.37699380	     -9.93863125	     -7.84713929	      5.83810950	     12.76726462
      1.46700000	     -3.77752864	     -7.45797704	    -16.12028929	      0.90324199	      0.95251206	      0.32293349	    -19.30800487	      3.72653078	      4.49447703	    -12.58320872	      8.89613267	      0.89489825	     13.31664247	     32.04100345	    -16.01907459	    -11.08389534	     -6.31356272	      4.02399144	    -10.67842318	     -9.79773105	     -7.80104939	      5.51721184	     12.82676890
      1.47116667	     -3.78742256	     -7.22876928	    -16.17768665	      0.90999079	      0.95220529	      0.32254181	    -19.31146070	      3.33272237	      4.31464274	    -13.06571817	      8.32942364	      0.97206641	     13.47351979	     31.92535217	    -15.78556001	    -11.32827594	     -6.65344208	      3.26095840	    -10.89512769	     -9.71273528	     -7.63610193	      5.20777399	     12.81825510
      1.47533333	     -3.63207374	     -6.97400297	    -16.17334596	      0.91669691	      0.95221931	      0.32190206	    -19.43823531	      2.86046193	      4.00086501	    -13.60182054	      7.81593260	      1.28883219	     13.87885950	     31.61346697	    -15.43434186	    -11.50908983	     -6.87615735	      2.23897293	    -11.34303800	     -9.48215986	     -7.67928637	      4.83092084	     12.86642137
      1.47950000	     -3.56260405	     -6.69771595	    -16.16850292	      0.92340738	      0.95217168	      0.32131263	    -19.43376097	      2.40982348	      3.71064061	    -14.20834131	      7.23095051	      1.42809673	     14.32151477	     31.41405338	    -15.08868656	    -11.71030515	     -7.12093175	      1.19739502	    -11.72652508	     -9.22801911	     -7.60907920	      4.45393221	     12.81280028
      1.48366667	     -3.56920914	     -6.42430423	    -16.13361075	      0.93019597	      0.95204292	      0.32076609	    -19.34619818	      2.01260534	      3.44620191	    -14.82333104	      6.49376967	      1.38429508	     14.54807935	     31.36140132	    -14.77133271	    -11.96238357	     -7.49005108	      0.31163922	    -11.92203620	     -9.10059987	     -7.43144013	      4.09528167	     12.74769111
      1.48783333	     -3.41993613	     -6.12077953	    -15.98675761	      0.93697750	      0.95217749	      0.31983793	    -19.37500753	      1.53922804	      2.95575067	    -15.48393348	      5.78507219	      1.54994902	     22.17415760	     31.15148722	    -14.30168741	    -12.07034738	     -7.76963697	     -0.86318029	    -12.43322708	     -4.63494867	     -7.44353429	      3.68811940	     12.61534769
      1.49200000	     -3.38725126	     -5.82092131	    -15.90682672	      0.94369025	      0.95224235	      0.31918685	    -19.24433584	      1.12400996	      2.65612115	    -16.23215129	      5.06963327	      1.51425269	     22.20205885	     31.09764842	    -13.93046021	    -12.29870775	     -8.16996793	     -1.88976863	    -12.74219380	     -4.59382080	     -7.32223440	      3.28707324	     12.53773097
      1.49616667	     -3.29989926	     -5.48847008	    -15.75478567	      0.95042398	      0.95242565	      0.31830296	    -19.12401881	      0.66554208	      2.22121792	    -17.04509655	      4.29946831	      1.56787818	     22.31040208	     30.99079844	    -13.45915116	    -12.39649427	     -8.51786104	     -2.94003069	    -13.14435997	     -4.50833099	     -7.26322564	      2.85966735	     12.39808214
      1.50033333	     -3.27277643	     -5.16904109	    -15.60047625	      0.95716406	      0.95257824	      0.31755069	    -18.92575544	      0.26466765	      1.86325107	    -17.89108894	      3.42374261	      1.38510535	     22.39772131	     31.00554587	    -13.04800621	    -12.57105831	     -9.02204152	     -3.77304100	    -13.32309993	     -4.45556658	     -7.12729966	      2.44160030	     12.26284051
      1.50450000	     -3.16449375	     -4.80518758	    -15.35543716	      0.96391781	      0.95286800	      0.31647207	    -18.76583254	     -0.20657022	      1.33691794	    -18.80483463	      2.60984056	      1.45068198	     22.66382354	     30.94169649	    -12.49561090	    -12.56469784	     -9.45740055	     -4.80531965	    -13.82885468	     -4.31634361	     -7.08747299	      1.98273587	     12.03119923
